<?xml version="1.0" encoding="UTF-8" standalone="no"?> <svg width="64" height="64" viewBox="0 0 64 64" fill="none" xmlns="http://www.w3.org/2000/svg">
<path d="M43.25 40.68C42.9185 40.68 42.6005 40.8117 42.3661 41.0461C42.1317 41.2805 42 41.5985 42 41.93V58.75H5.25V5.25H42V22.07C42 22.4015 42.1317 22.7195 42.3661 22.9539C42.6005 23.1883 42.9185 23.32 43.25 23.32C43.5815 23.32 43.8995 23.1883 44.1339 22.9539C44.3683 22.7195 44.5 22.4015 44.5 22.07V4C44.5 3.66848 44.3683 3.35054 44.1339 3.11612C43.8995 2.8817 43.5815 2.75 43.25 2.75H4C3.66848 2.75 3.35054 2.8817 3.11612 3.11612C2.8817 3.35054 2.75 3.66848 2.75 4V60C2.75 60.3315 2.8817 60.6495 3.11612 60.8839C3.35054 61.1183 3.66848 61.25 4 61.25H43.25C43.5815 61.25 43.8995 61.1183 44.1339 60.8839C44.3683 60.6495 44.5 60.3315 44.5 60V41.93C44.5 41.5985 44.3683 41.2805 44.1339 41.0461C43.8995 40.8117 43.5815 40.68 43.25 40.68Z" fill="black"/>
<path d="M60 30.75H28.63L32.29 25.42C32.4416 25.1848 32.5105 24.9059 32.486 24.6272C32.4615 24.3485 32.345 24.0859 32.1547 23.8808C31.9645 23.6756 31.7114 23.5396 31.4353 23.4942C31.1593 23.4488 30.8759 23.4966 30.63 23.63L18 30.92C17.8112 31.0301 17.6545 31.1877 17.5456 31.3772C17.4367 31.5667 17.3794 31.7815 17.3794 32C17.3794 32.2186 17.4367 32.4333 17.5456 32.6228C17.6545 32.8123 17.8112 32.97 18 33.08L30.63 40.37C30.8759 40.5034 31.1593 40.5512 31.4353 40.5058C31.7114 40.4604 31.9645 40.3244 32.1547 40.1193C32.345 39.9141 32.4615 39.6515 32.486 39.3728C32.5105 39.0941 32.4416 38.8152 32.29 38.58L28.63 33.25H60C60.3316 33.25 60.6495 33.1183 60.8839 32.8839C61.1183 32.6495 61.25 32.3315 61.25 32C61.25 31.6685 61.1183 31.3506 60.8839 31.1161C60.6495 30.8817 60.3316 30.75 60 30.75Z" fill="black"/>
</svg>
